# xmcd
#
# Track frame offsets: 
#        150
#        11397
#        23323
#        36360
#        47389
#        59355
#        72863
#        85105
#        97811
#        110524
#        123837
#        136186
#        148890
#        160883
#        176319
#        190525
#        203662
#        217993
#        230930
#        248148
#        264022
#        276289
#
# Disc length: 3853 seconds
#
# Revision: 1
# Processed by: cddbd v1.5.2PL0 Copyright (c) Steve Scherf et al.
# Submitted via: ExactAudioCopyFreeDBPlugin 1.0
#
DISCID=1d0f0b16
DTITLE=Jackie Wilson - Titan Of Soul 3-3
DYEAR=1900
DGENRE=
TTITLE0=Jackie Wilson and Lavern Baker - Think Twice-1966
TTITLE1=Think Twice (version X)-1966
TTITLE2=Jackie Wilson and Lavern Baker - Please Don't Hurt Me-1966
TTITLE3=Wispers (Gettin' Louder)-1966
TTITLE4=I Don't Want To Lose You-1967
TTITLE5=(Your Love Keeps Lifting Me) Higher and Higher-1967
TTITLE6=Jackie Wilson and Count Basie - For Your Precious Love-1968
TTITLE7=Jackie Wilson and Count Basie - Chain Gang-1968
TTITLE8=Since You Showed Me How To Be Happy-1967
TTITLE9=I Get the Sweetest Feeling-1968
TTITLE10=Hold On, I'm Comin'-1969
TTITLE11=Light My Fire-1969
TTITLE12=Eleanor Rigby-1969
TTITLE13=People-1969
TTITLE14=For Once In My Life-1968
TTITLE15=(I Can Feel Those Vibrations) This Love Is Real-1970
TTITLE16=Love Is Funny That Way-1971
TTITLE17=Pretty Little Angel Eyes-1972
TTITLE18=My Way-1971
TTITLE19=Jackie Wilson and The Chi Lites - Don't Burn No Bridges-1975
TTITLE20=It Came Upon A Midnight Clear-1963
TTITLE21=Silent Night-1963
EXTD=
EXTT0=
EXTT1=
EXTT2=
EXTT3=
EXTT4=
EXTT5=
EXTT6=
EXTT7=
EXTT8=
EXTT9=
EXTT10=
EXTT11=
EXTT12=
EXTT13=
EXTT14=
EXTT15=
EXTT16=
EXTT17=
EXTT18=
EXTT19=
EXTT20=
EXTT21=
PLAYORDER=
